<?xml version="1.0"?>
<svg xmlns="http://www.w3.org/2000/svg" xmlns:xlink="http://www.w3.org/1999/xlink" xmlns:svgjs="http://svgjs.com/svgjs" version="1.1" width="512" height="512" x="0" y="0" viewBox="0 0 225.389 225.389" style="enable-background:new 0 0 512 512" xml:space="preserve" class=""><circle r="112.6945" cx="112.6945" cy="112.6945" fill="#f5e37f" shape="circle"/><g transform="matrix(0.49,0,0,-0.49,57.474196929931715,167.91480815172204)">
<g xmlns="http://www.w3.org/2000/svg">
	<g>
		<polygon points="172.973,46.116 131.042,46.116 152.007,82.431   " fill="#0e0e0e" data-original="#000000" style="" class=""/>
		<polygon points="199.181,85.458 178.215,49.142 157.25,85.458   " fill="#0e0e0e" data-original="#000000" style="" class=""/>
		<polygon points="199.181,91.51 157.25,91.51 178.215,127.826   " fill="#0e0e0e" data-original="#000000" style="" class=""/>
		<polygon points="146.764,91.51 104.833,91.51 125.799,127.826   " fill="#0e0e0e" data-original="#000000" style="" class=""/>
		<polygon points="52.417,91.51 73.382,127.826 94.351,91.51   " fill="#0e0e0e" data-original="#000000" style="" class=""/>
		<polygon points="26.208,130.852 68.142,130.852 47.174,94.537   " fill="#0e0e0e" data-original="#000000" style="" class=""/>
		<polygon points="120.556,130.852 99.59,94.537 78.625,130.852   " fill="#0e0e0e" data-original="#000000" style="" class=""/>
		<polygon points="152.007,94.537 131.042,130.852 172.973,130.852   " fill="#0e0e0e" data-original="#000000" style="" class=""/>
		<polygon points="152.007,3.747 131.042,40.063 172.973,40.063   " fill="#0e0e0e" data-original="#000000" style="" class=""/>
		<polygon points="172.973,136.905 131.042,136.905 152.007,173.22   " fill="#0e0e0e" data-original="#000000" style="" class=""/>
		<polygon points="78.625,136.905 99.59,173.22 120.556,136.905   " fill="#0e0e0e" data-original="#000000" style="" class=""/>
		<polygon points="47.174,173.22 68.142,136.905 26.208,136.905   " fill="#0e0e0e" data-original="#000000" style="" class=""/>
		<polygon points="0,176.247 41.934,176.247 20.968,139.931   " fill="#0e0e0e" data-original="#000000" style="" class=""/>
		<polygon points="104.833,176.247 146.764,176.247 125.799,139.931   " fill="#0e0e0e" data-original="#000000" style="" class=""/>
		<polygon points="157.25,182.299 178.215,218.615 199.181,182.299   " fill="#0e0e0e" data-original="#000000" style="" class=""/>
		<polygon points="104.833,182.299 125.799,218.615 146.764,182.299   " fill="#0e0e0e" data-original="#000000" style="" class=""/>
		<polygon points="131.042,221.642 172.973,221.642 152.007,185.326   " fill="#0e0e0e" data-original="#000000" style="" class=""/>
		<polygon points="204.417,185.326 183.458,221.642 225.389,221.642   " fill="#0e0e0e" data-original="#000000" style="" class=""/>
	</g>
</g>
<g xmlns="http://www.w3.org/2000/svg">
</g>
<g xmlns="http://www.w3.org/2000/svg">
</g>
<g xmlns="http://www.w3.org/2000/svg">
</g>
<g xmlns="http://www.w3.org/2000/svg">
</g>
<g xmlns="http://www.w3.org/2000/svg">
</g>
<g xmlns="http://www.w3.org/2000/svg">
</g>
<g xmlns="http://www.w3.org/2000/svg">
</g>
<g xmlns="http://www.w3.org/2000/svg">
</g>
<g xmlns="http://www.w3.org/2000/svg">
</g>
<g xmlns="http://www.w3.org/2000/svg">
</g>
<g xmlns="http://www.w3.org/2000/svg">
</g>
<g xmlns="http://www.w3.org/2000/svg">
</g>
<g xmlns="http://www.w3.org/2000/svg">
</g>
<g xmlns="http://www.w3.org/2000/svg">
</g>
<g xmlns="http://www.w3.org/2000/svg">
</g>
</g></svg>
