<svg id="Layer_1" enable-background="new 0 0 256 256" height="512" viewBox="0 0 256 256" width="512" xmlns="http://www.w3.org/2000/svg"><g><path d="m174.969 173.825c-1.381 0-2.5-1.119-2.5-2.5v-126.409c0-1.381 1.119-2.5 2.5-2.5s2.5 1.119 2.5 2.5v126.409c0 1.381-1.119 2.5-2.5 2.5z" fill="#ebe7f2"/><g fill="#f9b087"><path d="m217.63 86.777h-31.663c-1.381 0-2.5-1.119-2.5-2.5v-19.508c0-1.381 1.119-2.5 2.5-2.5h31.663c1.381 0 2.5 1.119 2.5 2.5v19.509c0 1.38-1.119 2.499-2.5 2.499zm-29.163-5h26.663v-14.508h-26.663z"/><path d="m217.63 120.039h-31.663c-1.381 0-2.5-1.119-2.5-2.5v-19.51c0-1.381 1.119-2.5 2.5-2.5h31.663c1.381 0 2.5 1.119 2.5 2.5v19.51c0 1.381-1.119 2.5-2.5 2.5zm-29.163-5h26.663v-14.51h-26.663z"/><path d="m217.63 153.3h-31.663c-1.381 0-2.5-1.119-2.5-2.5v-19.509c0-1.381 1.119-2.5 2.5-2.5h31.663c1.381 0 2.5 1.119 2.5 2.5v19.509c0 1.381-1.119 2.5-2.5 2.5zm-29.163-5h26.663v-14.509h-26.663z"/><path d="m159.288 152.518h-117.059c-1.381 0-2.5-1.119-2.5-2.5v-16.938c0-1.381 1.119-2.5 2.5-2.5h117.06c1.381 0 2.5 1.119 2.5 2.5v16.938c-.001 1.38-1.12 2.5-2.501 2.5zm-114.559-5h112.06v-11.938h-112.06z"/><path d="m60.121 152.518c-1.381 0-2.5-1.119-2.5-2.5v-16.938c0-1.381 1.119-2.5 2.5-2.5s2.5 1.119 2.5 2.5v16.938c0 1.38-1.119 2.5-2.5 2.5z"/><path d="m159.288 135.58h-117.059c-1.381 0-2.5-1.119-2.5-2.5v-66.597c0-1.381 1.119-2.5 2.5-2.5h117.06c1.381 0 2.5 1.119 2.5 2.5v66.597c-.001 1.381-1.12 2.5-2.501 2.5zm-114.559-5h112.06v-61.597h-112.06z"/></g><g fill="#846f75"><path d="m220.092 42.416h-184.184c-6.987 0-12.672 5.685-12.672 12.672v106.065c0 6.987 5.685 12.672 12.672 12.672h184.184c6.987 0 12.672-5.685 12.672-12.672v-106.065c0-6.987-5.685-12.672-12.672-12.672zm7.672 118.737c0 4.23-3.441 7.672-7.672 7.672h-184.184c-4.23 0-7.672-3.441-7.672-7.672v-106.065c0-4.23 3.441-7.672 7.672-7.672h184.184c4.23 0 7.672 3.441 7.672 7.672z"/><path d="m169.327 197.299h-24.59v-15.974c0-1.381-1.119-2.5-2.5-2.5s-2.5 1.119-2.5 2.5v15.974h-23.475v-15.974c0-1.381-1.119-2.5-2.5-2.5s-2.5 1.119-2.5 2.5v15.974h-24.59c-4.489 0-8.142 3.652-8.142 8.143s3.652 8.143 8.142 8.143h82.654c4.489 0 8.142-3.652 8.142-8.143s-3.652-8.143-8.141-8.143zm0 11.285h-82.654c-1.732 0-3.142-1.41-3.142-3.143s1.409-3.143 3.142-3.143h82.654c1.732 0 3.142 1.41 3.142 3.143s-1.409 3.143-3.142 3.143z"/><path d="m136.713 94.295-33.644-14.484c-.631-.271-1.346-.271-1.977 0l-33.644 14.484c-.918.395-1.512 1.297-1.512 2.296 0 .108.033.208.046.313-.028.149-.046.302-.046.459v14.781c0 1.381 1.119 2.5 2.5 2.5s2.5-1.119 2.5-2.5v-11.756l30.156 12.982c.315.136.651.204.988.204s.673-.068.988-.204l33.644-14.483c.917-.395 1.512-1.297 1.512-2.296s-.593-1.902-1.511-2.296zm-34.632 14.058-27.322-11.762 27.322-11.763 27.321 11.763z"/><path d="m126.652 107.287c-1.381 0-2.5 1.119-2.5 2.5v3.446c-14.24 3.318-29.171 3.318-43.409 0v-3.446c0-1.381-1.119-2.5-2.5-2.5s-2.5 1.119-2.5 2.5v5.41c0 1.145.778 2.144 1.888 2.424l.297.075c8.022 2.017 16.271 3.025 24.52 3.025 8.353 0 16.705-1.034 24.822-3.102 1.107-.282 1.883-1.28 1.883-2.423v-5.41c-.001-1.38-1.12-2.499-2.501-2.499z"/></g><path d="m68.437 124.169c-1.381 0-2.5-1.119-2.5-2.5v-2.864c0-1.381 1.119-2.5 2.5-2.5s2.5 1.119 2.5 2.5v2.864c0 1.381-1.12 2.5-2.5 2.5z" fill="#f9b087"/></g></svg>