<?xml version="1.0"?>
<svg xmlns="http://www.w3.org/2000/svg" xmlns:xlink="http://www.w3.org/1999/xlink" xmlns:svgjs="http://svgjs.com/svgjs" version="1.1" width="512" height="512" x="0" y="0" viewBox="0 0 199.181 199.181" style="enable-background:new 0 0 512 512" xml:space="preserve" class=""><g>
<g xmlns="http://www.w3.org/2000/svg">
	<g>
		<polygon points="146.764,11.827 104.833,11.827 125.798,48.143   " fill="#36dedc" data-original="#000000" style="" class=""/>
		<polygon points="94.348,11.827 52.417,11.827 73.382,48.143   " fill="#36dedc" data-original="#000000" style="" class=""/>
		<polygon points="47.174,14.854 26.208,51.169 68.142,51.169   " fill="#36dedc" data-original="#000000" style="" class=""/>
		<polygon points="172.972,51.169 152.007,14.854 131.042,51.169   " fill="#36dedc" data-original="#000000" style="" class=""/>
		<polygon points="152.007,93.538 172.972,57.222 131.042,57.222   " fill="#36dedc" data-original="#000000" style="" class=""/>
		<polygon points="68.142,57.222 26.208,57.222 47.174,93.538   " fill="#36dedc" data-original="#000000" style="" class=""/>
		<polygon points="20.965,60.248 0,96.564 41.934,96.564   " fill="#36dedc" data-original="#000000" style="" class=""/>
		<polygon points="199.181,96.564 178.215,60.248 157.25,96.564   " fill="#36dedc" data-original="#000000" style="" class=""/>
		<polygon points="178.215,138.933 199.181,102.616 157.25,102.616   " fill="#36dedc" data-original="#000000" style="" class=""/>
		<polygon points="0,102.616 20.965,138.933 41.934,102.616   " fill="#36dedc" data-original="#000000" style="" class=""/>
		<polygon points="152.007,184.327 172.972,148.012 131.042,148.012   " fill="#36dedc" data-original="#000000" style="" class=""/>
		<polygon points="78.625,148.012 99.59,184.327 120.556,148.012   " fill="#36dedc" data-original="#000000" style="" class=""/>
		<polygon points="26.208,148.012 47.174,184.327 68.142,148.012   " fill="#36dedc" data-original="#000000" style="" class=""/>
		<polygon points="52.417,187.354 94.348,187.354 73.382,151.037   " fill="#36dedc" data-original="#000000" style="" class=""/>
		<polygon points="104.833,187.354 146.764,187.354 125.798,151.037   " fill="#36dedc" data-original="#000000" style="" class=""/>
	</g>
</g>
<g xmlns="http://www.w3.org/2000/svg">
</g>
<g xmlns="http://www.w3.org/2000/svg">
</g>
<g xmlns="http://www.w3.org/2000/svg">
</g>
<g xmlns="http://www.w3.org/2000/svg">
</g>
<g xmlns="http://www.w3.org/2000/svg">
</g>
<g xmlns="http://www.w3.org/2000/svg">
</g>
<g xmlns="http://www.w3.org/2000/svg">
</g>
<g xmlns="http://www.w3.org/2000/svg">
</g>
<g xmlns="http://www.w3.org/2000/svg">
</g>
<g xmlns="http://www.w3.org/2000/svg">
</g>
<g xmlns="http://www.w3.org/2000/svg">
</g>
<g xmlns="http://www.w3.org/2000/svg">
</g>
<g xmlns="http://www.w3.org/2000/svg">
</g>
<g xmlns="http://www.w3.org/2000/svg">
</g>
<g xmlns="http://www.w3.org/2000/svg">
</g>
</g></svg>
