<?xml version="1.0"?>
<svg xmlns="http://www.w3.org/2000/svg" xmlns:xlink="http://www.w3.org/1999/xlink" xmlns:svgjs="http://svgjs.com/svgjs" version="1.1" width="512" height="512" x="0" y="0" viewBox="0 0 39.035 39.035" style="enable-background:new 0 0 512 512" xml:space="preserve" class=""><circle r="19.5175" cx="19.5175" cy="19.5175" fill="#f5e37f" shape="circle"/><g transform="matrix(0.7,0,0,0.7,5.855249977111818,5.855249977111818)">
<g xmlns="http://www.w3.org/2000/svg">
	<g>
		<polygon points="6.058,8.637 3.366,13.3 8.749,13.3   " fill="#000000" data-original="#000000" style="" class=""/>
		<polygon points="19.518,8.637 16.826,13.3 22.21,13.3   " fill="#000000" data-original="#000000" style="" class=""/>
		<polygon points="35.67,13.3 32.979,8.637 30.286,13.3   " fill="#000000" data-original="#000000" style="" class=""/>
		<polygon points="28.939,14.078 23.557,14.078 26.248,18.74   " fill="#000000" data-original="#000000" style="" class=""/>
		<polygon points="22.21,14.078 16.826,14.078 19.518,18.74   " fill="#000000" data-original="#000000" style="" class=""/>
		<polygon points="12.788,18.74 15.479,14.078 10.096,14.078   " fill="#000000" data-original="#000000" style="" class=""/>
		<polygon points="2.692,14.465 0,19.128 5.384,19.128   " fill="#000000" data-original="#000000" style="" class=""/>
		<polygon points="18.845,19.128 16.153,14.465 13.461,19.128   " fill="#000000" data-original="#000000" style="" class=""/>
		<polygon points="25.575,19.128 22.883,14.465 20.191,19.128   " fill="#000000" data-original="#000000" style="" class=""/>
		<polygon points="39.035,19.128 36.344,14.465 33.65,19.128   " fill="#000000" data-original="#000000" style="" class=""/>
		<polygon points="28.939,2.42 23.557,2.42 26.248,7.082   " fill="#000000" data-original="#000000" style="" class=""/>
		<polygon points="22.21,2.42 16.826,2.42 19.518,7.082   " fill="#000000" data-original="#000000" style="" class=""/>
		<polygon points="15.479,2.42 10.096,2.42 12.788,7.082   " fill="#000000" data-original="#000000" style="" class=""/>
		<polygon points="9.422,2.808 6.73,7.471 12.114,7.471   " fill="#000000" data-original="#000000" style="" class=""/>
		<polygon points="32.305,7.471 29.613,2.808 26.921,7.471   " fill="#000000" data-original="#000000" style="" class=""/>
		<polygon points="36.344,24.568 39.035,19.906 33.65,19.906   " fill="#000000" data-original="#000000" style="" class=""/>
		<polygon points="20.191,19.906 22.883,24.568 25.575,19.906   " fill="#000000" data-original="#000000" style="" class=""/>
		<polygon points="13.461,19.906 16.153,24.568 18.845,19.906   " fill="#000000" data-original="#000000" style="" class=""/>
		<polygon points="0,19.906 2.692,24.568 5.384,19.906   " fill="#000000" data-original="#000000" style="" class=""/>
		<polygon points="10.096,24.957 15.479,24.957 12.788,20.294   " fill="#000000" data-original="#000000" style="" class=""/>
		<polygon points="16.826,24.957 22.21,24.957 19.518,20.294   " fill="#000000" data-original="#000000" style="" class=""/>
		<polygon points="23.557,24.957 28.939,24.957 26.248,20.294   " fill="#000000" data-original="#000000" style="" class=""/>
		<polygon points="32.979,30.396 35.67,25.734 30.286,25.734   " fill="#000000" data-original="#000000" style="" class=""/>
		<polygon points="19.518,30.396 22.21,25.734 16.826,25.734   " fill="#000000" data-original="#000000" style="" class=""/>
		<polygon points="3.366,25.734 6.058,30.396 8.749,25.734   " fill="#000000" data-original="#000000" style="" class=""/>
		<polygon points="29.613,36.227 32.305,31.562 26.921,31.562   " fill="#000000" data-original="#000000" style="" class=""/>
		<polygon points="6.73,31.562 9.422,36.227 12.114,31.562   " fill="#000000" data-original="#000000" style="" class=""/>
		<polygon points="10.096,36.615 15.479,36.615 12.788,31.952   " fill="#000000" data-original="#000000" style="" class=""/>
		<polygon points="16.826,36.615 22.21,36.615 19.518,31.952   " fill="#000000" data-original="#000000" style="" class=""/>
		<polygon points="23.557,36.615 28.939,36.615 26.248,31.952   " fill="#000000" data-original="#000000" style="" class=""/>
	</g>
</g>
<g xmlns="http://www.w3.org/2000/svg">
</g>
<g xmlns="http://www.w3.org/2000/svg">
</g>
<g xmlns="http://www.w3.org/2000/svg">
</g>
<g xmlns="http://www.w3.org/2000/svg">
</g>
<g xmlns="http://www.w3.org/2000/svg">
</g>
<g xmlns="http://www.w3.org/2000/svg">
</g>
<g xmlns="http://www.w3.org/2000/svg">
</g>
<g xmlns="http://www.w3.org/2000/svg">
</g>
<g xmlns="http://www.w3.org/2000/svg">
</g>
<g xmlns="http://www.w3.org/2000/svg">
</g>
<g xmlns="http://www.w3.org/2000/svg">
</g>
<g xmlns="http://www.w3.org/2000/svg">
</g>
<g xmlns="http://www.w3.org/2000/svg">
</g>
<g xmlns="http://www.w3.org/2000/svg">
</g>
<g xmlns="http://www.w3.org/2000/svg">
</g>
</g></svg>
