<svg height="512pt" viewBox="0 0 512 512" width="512pt" xmlns="http://www.w3.org/2000/svg"><path d="m256 0h-211c-24.8125 0-45 20.1875-45 45v211l118.65625 13.59375 137.34375-13.59375 17.34375-144.375zm0 0" fill="#fff35c"/><path d="m256 256-13.125 137.8125 13.125 118.1875h211c24.8125 0 45-20.1875 45-45v-211l-119.125-20.625zm0 0" fill="#ff0059"/><path d="m512 256v-211c0-24.8125-20.1875-45-45-45h-211v256zm0 0" fill="#fdbf00"/><path d="m0 256v211c0 24.8125 20.1875 45 45 45h211v-256zm0 0" fill="#fbe000"/><path d="m436 151h-120c-8.289062 0-15-6.710938-15-15s6.710938-15 15-15h120c8.289062 0 15 6.710938 15 15s-6.710938 15-15 15zm0 0" fill="#384949"/><path d="m211 376c0 8.289062-6.710938 15-15 15h-120c-8.289062 0-15-6.710938-15-15s6.710938-15 15-15h120c8.289062 0 15 6.710938 15 15zm0 0" fill="#4a696f"/><path d="m196 121h-45v-45c0-8.289062-6.710938-15-15-15s-15 6.710938-15 15v45h-45c-8.289062 0-15 6.710938-15 15s6.710938 15 15 15h45v45c0 8.289062 6.710938 15 15 15s15-6.710938 15-15v-45h45c8.289062 0 15-6.710938 15-15s-6.710938-15-15-15zm0 0" fill="#4a696f"/><path d="m397.210938 376 42.421874-42.421875c5.859376-5.859375 5.859376-15.351563 0-21.210937-5.859374-5.859376-15.351562-5.859376-21.210937 0l-42.421875 42.421874-42.421875-42.421874c-5.859375-5.859376-15.351563-5.859376-21.210937 0-5.859376 5.859374-5.859376 15.351562 0 21.210937l42.421874 42.421875-42.421874 42.421875c-5.859376 5.859375-5.859376 15.351563 0 21.210937 5.859374 5.859376 15.351562 5.859376 21.210937 0l42.421875-42.421874 42.421875 42.421874c5.859375 5.859376 15.351563 5.859376 21.210937 0 5.859376-5.859374 5.859376-15.351562 0-21.210937zm0 0" fill="#384949"/><g fill="#4a696f"><path d="m151 316c0 8.285156-6.714844 15-15 15s-15-6.714844-15-15 6.714844-15 15-15 15 6.714844 15 15zm0 0"/><path d="m151 436c0 8.285156-6.714844 15-15 15s-15-6.714844-15-15 6.714844-15 15-15 15 6.714844 15 15zm0 0"/></g></svg>